<svg xmlns="http://www.w3.org/2000/svg" xmlns:xlink="http://www.w3.org/1999/xlink" x="0" y="0" enable-background="new 0 0 22.629 24" version="1.1" viewBox="0 0 22.629 30" xml:space="preserve"><g><polygon points="18.315 0 15.315 0 15.015 3 18.614 3"/><path d="M15.315,21h-3v2c0,0.553,0.447,1,1,1h7c0.051,0,0.095-0.021,0.144-0.029l-4.144-4.143V20 C16.315,20.553,15.867,21,15.315,21z"/><path d="M14.315,10h-1c-0.32,0-0.594,0.16-0.776,0.394L15.144,13h0.171c0.553,0,1,0.447,1,1v0.171l5,5V11c0-0.553-0.447-1-1-1h-1 l-0.6-6h-3.801L14.315,10z"/><path d="M9.867,13.381L7.486,11H1.315c0,2.831,1.75,5.16,4,5.464V23h-2.5c-0.276,0-0.5,0.224-0.5,0.5s0.224,0.5,0.5,0.5h6 c0.276,0,0.5-0.224,0.5-0.5S9.091,23,8.815,23h-2.5v-6.545C7.885,16.242,9.21,15.049,9.867,13.381z"/><rect width="2.001" height="30" x="10.315" y="-3" transform="matrix(0.7071 -0.7071 0.7071 0.7071 -5.1712 11.5156)"/></g></svg>