<svg xmlns="http://www.w3.org/2000/svg" xmlns:xlink="http://www.w3.org/1999/xlink" viewBox="0 0 67 67.5" version="1.1" x="0px" y="0px"><g stroke="none" stroke-width="1" fill="none" fill-rule="evenodd"><g><path d="M48.9863114,40.0256392 C50.356696,40.8352854 51.6959189,42.0825375 52.9673903,43.6501618 C53.8249878,44.707512 54.5996914,45.8449865 55.2758736,46.9825724 C55.5123817,47.3804655 55.7192976,47.7492565 55.8948936,48.079019 C55.9985864,48.2737501 56.0677153,48.4099033 56.1006143,48.4775883 C56.3420489,48.9743053 56.9404391,49.1812525 57.437156,48.9398179 C57.933873,48.6983833 58.1408203,48.0999932 57.8993857,47.6032762 C57.8560309,47.5140799 57.7758102,47.3560808 57.6602156,47.1389987 C57.4703327,46.7824058 57.2481479,46.3864008 56.9950915,45.9606674 C56.2725182,44.7450349 55.4445075,43.5292909 54.5206959,42.390304 C53.1113864,40.6527361 51.6050564,39.249853 50.0036522,38.3037165 C49.5281564,38.0227856 48.9149514,38.1805116 48.6340205,38.6560074 C48.3530896,39.1315033 48.5108156,39.7447083 48.9863114,40.0256392 L48.9863114,40.0256392 Z" fill="#000000"/><path d="M26.6731965,34.3672642 C28.4902243,35.5329295 30.3023243,37.4613212 32.0432339,39.9378771 C33.1264077,41.4787616 34.1150808,43.1348958 34.9869565,44.7914354 C35.2921408,45.371277 35.5606272,45.909165 35.7898499,46.3908698 C35.9261166,46.6772303 36.0181722,46.8792526 36.0635056,46.9827518 C36.2850871,47.4886372 36.8748156,47.7191111 37.380701,47.4975296 C37.8865865,47.2759481 38.1170603,46.6862196 37.8954788,46.1803341 C37.8420039,46.0582474 37.7413229,45.8372961 37.5958046,45.5314935 C37.3553855,45.0262598 37.0749418,44.4644164 36.7567874,43.8599318 C35.8476954,42.1326824 34.8163261,40.4050275 33.6794224,38.7877088 C31.8024244,36.1175584 29.8245538,34.0127578 27.7531222,32.6838865 C27.2882703,32.3856733 26.6696838,32.5207606 26.3714705,32.9856125 C26.0732573,33.4504644 26.2083446,34.069051 26.6731965,34.3672642 L26.6731965,34.3672642 Z" fill="#000000"/><path d="M23,33 L23,33 C27.418278,33 31,29.418278 31,25 C31,20.581722 27.418278,17 23,17 C18.581722,17 15,20.581722 15,25 C15,29.418278 18.581722,33 23,33 L23,33 Z M23,35 L23,35 C17.4771525,35 13,30.5228475 13,25 C13,19.4771525 17.4771525,15 23,15 C28.5228475,15 33,19.4771525 33,25 C33,30.5228475 28.5228475,35 23,35 L23,35 Z" fill="#000000"/><path d="M46,39 L46,39 C49.3137085,39 52,36.3137085 52,33 C52,29.6862915 49.3137085,27 46,27 C42.6862915,27 40,29.6862915 40,33 C40,36.3137085 42.6862915,39 46,39 L46,39 Z M46,41 L46,41 C41.581722,41 38,37.418278 38,33 C38,28.581722 41.581722,25 46,25 C50.418278,25 54,28.581722 54,33 C54,37.418278 50.418278,41 46,41 L46,41 Z" fill="#000000"/><path d="M20,15.4647486 C20,15.4647486 20.8359375,19.6582985 24.2021484,22.2729492 C27.5683594,24.8875999 29.1655273,25.040432 32.3212891,25.0404322 C32.3212891,25.0404322 32.7197266,18.5072291 27.871582,16.2567408 C23.0234375,14.0062525 20,15.4647486 20,15.4647486 Z" fill="#000000"/><path d="M13.0320338,16.1523375 C13.0320338,16.1523375 13.8663366,19.907701 17.225965,22.2491454 C20.5855934,24.5905898 22.1796382,24.7274523 25.3292289,24.7274526 C25.3292289,24.7274526 25.1731929,19.384443 19.8334306,16.878418 C14.4936684,14.3723929 13.0320338,16.1523375 13.0320338,16.1523375 Z" fill="#000000" transform="translate(19.180631, 20.133376) scale(-1, 1) translate(-19.180631, -20.133376) "/><ellipse fill="#000000" transform="translate(34.791992, 15.603414) rotate(57.000000) translate(-34.791992, -15.603414) " cx="34.7919922" cy="15.6034136" rx="3.20800781" ry="6.73561321"/><ellipse fill="#000000" transform="translate(12.286845, 14.396586) rotate(-42.000000) translate(-12.286845, -14.396586) " cx="12.2868447" cy="14.3965864" rx="3.20800781" ry="6.73561321"/><path d="M39.316994,34.0523946 L59.9588619,26.2260074" stroke="#000000" stroke-width="2" stroke-linecap="round" transform="translate(49.637928, 30.139201) rotate(22.000000) translate(-49.637928, -30.139201) "/><path d="M54.6577495,27.67304 C54.6577495,27.67304 53.0670486,22.8865522 48.4277359,22.5568581 C43.7884233,22.227164 40.4402598,24.4386367 39.580014,27.6730402 C38.7197682,30.9074438 39.580014,32.7374539 39.580014,32.7374539 L54.6577495,27.67304 Z" fill="#000000" transform="translate(46.927716, 27.630902) rotate(22.000000) translate(-46.927716, -27.630902) "/><path d="M22.5,41 L22.5,41 C21.6715729,41 21,40.3284271 21,39.5 C21,38.6715729 21.6715729,38 22.5,38 C23.3284271,38 24,38.6715729 24,39.5 C24,40.3284271 23.3284271,41 22.5,41 L22.5,41 Z" fill="#000000"/><path d="M22.5,47 L22.5,47 C21.6715729,47 21,46.3284271 21,45.5 C21,44.6715729 21.6715729,44 22.5,44 C23.3284271,44 24,44.6715729 24,45.5 C24,46.3284271 23.3284271,47 22.5,47 L22.5,47 Z" fill="#000000"/><path d="M36.9855978,43.54452 C37.0597503,43.4244462 37.2276894,43.1865018 37.4881759,42.8701618 C37.9319309,42.3312565 38.466532,41.7902404 39.0898279,41.2856289 C39.8702821,40.6537843 40.7336233,40.1260101 41.6787107,39.735639 C42.1891645,39.5247946 42.4320458,38.9400668 42.2212014,38.4296131 C42.010357,37.9191593 41.4256293,37.6762779 40.9151755,37.8871223 C39.7833503,38.354626 38.7557986,38.9827848 37.8313734,39.7311862 C36.5708746,40.751668 35.7262788,41.7773625 35.2839334,42.493645 C34.9937423,42.9635467 35.1394265,43.5797236 35.6093281,43.8699147 C36.0792298,44.1601058 36.6954067,44.0144216 36.9855978,43.54452 L36.9855978,43.54452 Z" fill="#000000"/><path d="M8.9384098,45.9294282 C8.9905522,45.8343103 9.09603744,45.6483854 9.25140468,45.3847202 C9.51285828,44.9410216 9.81735993,44.4455223 10.1613959,43.9113239 C11.1445638,42.3847196 12.2446341,40.8583101 13.4318803,39.4376397 C15.4845498,36.9813954 17.5740882,35.1120468 19.6070101,34.0658889 C20.0980858,33.8131774 20.2913182,33.2102188 20.0386067,32.7191431 C19.7858952,32.2280674 19.1829366,32.034835 18.6918609,32.2875465 C16.3810983,33.4766834 14.1061639,35.5118915 11.8972212,38.1551337 C10.6522623,39.6448638 9.50501044,41.2367404 8.47993104,42.8284222 C8.12108039,43.385624 7.80278598,43.9035676 7.528308,44.3693691 C7.36211628,44.651404 7.24645494,44.8552649 7.18463707,44.9680327 C6.91915505,45.4523237 7.09653475,46.0601348 7.58082571,46.3256168 C8.06511668,46.5910989 8.67292778,46.4137192 8.9384098,45.9294282 L8.9384098,45.9294282 Z" fill="#000000"/></g></g></svg>