<svg xmlns="http://www.w3.org/2000/svg" xmlns:xlink="http://www.w3.org/1999/xlink" x="0" y="0" enable-background="new 0 0 100 100" version="1.1" viewBox="0 0 100 125" xml:space="preserve"><style type="text/css"/><path d="M17.6,59.8h15c0.6,0,1-0.4,1-1V42.2c0-0.6-0.4-1-1-1h-2.7c-7.3,0-13.3,6-13.3,13.3v4.3C16.6,59.3,17,59.8,17.6,59.8z M18.6,54.5c0-6.2,5.1-11.3,11.3-11.3h1.7v14.6h-13V54.5z"/><path d="M59.8,12.5v2.9c0,0.6,0.4,1,1,1s1-0.4,1-1v-2.9c0-0.6-0.4-1-1-1S59.8,12,59.8,12.5z"/><path d="M66.7,14.7l-2.1,2.1c-0.4,0.4-0.4,1,0,1.4c0.2,0.2,0.5,0.3,0.7,0.3s0.5-0.1,0.7-0.3l2.1-2.1c0.4-0.4,0.4-1,0-1.4 S67.1,14.3,66.7,14.7z"/><path d="M53.3,14.5c-0.4,0.4-0.4,1,0,1.4l2.1,2.1c0.2,0.2,0.5,0.3,0.7,0.3s0.5-0.1,0.7-0.3c0.4-0.4,0.4-1,0-1.4l-2.1-2.1 C54.3,14.1,53.7,14.1,53.3,14.5z"/><path d="M26.1,85.4c5.2,0,9.6-4,10.1-9.2h28.3c0.5,5.1,4.8,9.2,10.1,9.2s9.6-4,10.1-9.2h4.4c0.6,0,1-0.4,1-1V23.1c0-0.6-0.4-1-1-1 H65.5c-0.4-2.2-2.4-3.9-4.7-3.9s-4.3,1.7-4.7,3.9H32.6c-0.6,0-1,0.4-1,1v12.4h-2.9c-10.3,0-18.6,8.3-18.6,18.6v21.1c0,0.6,0.4,1,1,1 H16C16.5,81.4,20.8,85.4,26.1,85.4z M26.1,83.4c-4.5,0-8.1-3.6-8.1-8.1s3.6-8.1,8.1-8.1s8.1,3.6,8.1,8.1S30.5,83.4,26.1,83.4z M74.5,83.4c-4.5,0-8.1-3.6-8.1-8.1s3.6-8.1,8.1-8.1c4.5,0,8.1,3.6,8.1,8.1S78.9,83.4,74.5,83.4z M60.8,20.3c1.2,0,2.3,0.8,2.6,1.9 h-5.3C58.5,21,59.5,20.3,60.8,20.3z M12.1,54.2c0-9.2,7.5-16.6,16.6-16.6h3.9c0.6,0,1-0.4,1-1V24.1h54.4v50.1h-3.4 c-0.5-5.1-4.8-9-10-9s-9.5,4-10,9H36.1c-0.5-5.1-4.8-9-10-9s-9.5,4-10,9h-4V54.2z"/><path d="M49.3,45.8c0.1,0.3,0.4,0.5,0.7,0.6c0.3,0.1,0.6,0,0.9-0.3c0.3-0.3,1.1-1,2-1.4l-0.4,13.5c0,0.3,0.1,0.5,0.3,0.7 s0.4,0.3,0.7,0.3c0,0,0,0,0,0l14.4,0c0.3,0,0.5-0.1,0.7-0.3c0.2-0.2,0.3-0.5,0.3-0.7l-0.4-13.5c0.8,0.4,1.7,1.1,2,1.4 c0.2,0.2,0.6,0.3,0.9,0.3c0.3-0.1,0.6-0.3,0.7-0.6l2.9-6.4c0.2-0.4,0.1-0.9-0.2-1.1c-4.9-4.6-9.8-5.1-10-5.1c0,0-0.1,0-0.1,0h-0.2 c-0.6,0-1,0.4-1,1c0,1.6-1.3,2.9-2.9,2.9c-1.6,0-2.9-1.3-2.9-2.9c0-0.3-0.1-0.6-0.3-0.7c-0.2-0.2-0.5-0.3-0.8-0.3 c-0.2,0-5.1,0.6-10,5.1c-0.3,0.3-0.4,0.8-0.2,1.1L49.3,45.8z M55.9,35.3c0.5,2.1,2.5,3.7,4.8,3.7c2.3,0,4.3-1.6,4.8-3.8 c1.4,0.3,4.4,1.3,7.5,4l-2.1,4.6c-0.8-0.6-2.1-1.3-3.3-1.4c-0.3,0-0.6,0.1-0.8,0.3s-0.3,0.5-0.3,0.8l0.4,13.8l-12.4,0l0.4-13.8 c0-0.3-0.1-0.6-0.3-0.8c-0.2-0.2-0.4-0.3-0.7-0.3c0,0-0.1,0-0.1,0c-1.2,0.1-2.4,0.8-3.3,1.4l-2.1-4.6C51.5,36.6,54.4,35.6,55.9,35.3 z"/></svg>