<svg xmlns="http://www.w3.org/2000/svg" xmlns:xlink="http://www.w3.org/1999/xlink" x="0" y="0" enable-background="new 0 0 100 100" version="1.1" viewBox="0 0 100 125" xml:space="preserve"><style type="text/css">.st7{fill:#060808}.st8{fill:none}</style><g><rect width="5.1" height="7.2" x="52.8" y="72.2" class="st8"/><path d="M32.8,28.7c0,4.7,3.8,8.5,8.5,8.5c0.6,0,1.1-0.1,1.6-0.2c-0.3,1-0.5,2-0.6,3h0v5.3l5.8-0.9l2.1-8.1 c0.6-2.1,2.7-3.4,4.9-2.9c1,0.3,1.9,0.9,2.4,1.9c0.5,0.9,0.7,2,0.4,3L55.1,49c-0.4,1.6-1.7,2.7-3.3,2.9l-9.6,1.4v18.8h5.1v7.2h-3.6 v2.5h3.6h5.4h5.1h5.4v-2.5v-7.2h3V40h0c-0.3-6.3-5.5-11.3-11.9-11.3c-1.6,0-3.1,0.3-4.5,0.9c0-0.3,0.1-0.6,0.1-0.9 c0-1.4-0.4-2.8-1-3.9c-1.8-0.1-3.1-1.6-3.2-3.3c-1.3-0.8-2.8-1.2-4.4-1.2C36.6,20.2,32.8,24,32.8,28.7z M57.9,79.4h-5.1v-7.2h5.1 V79.4z"/><path d="M48.8,24.7c0.1,0,0.1,0,0.2,0c1.9,0,3.4-1.5,3.4-3.4S50.9,18,49,18s-3.4,1.5-3.4,3.4c0,0,0,0,0,0 C45.6,23.2,47,24.6,48.8,24.7z" class="st7"/><path d="M53.7,48.7L56.5,38c0.3-1.3-0.4-2.7-1.8-3.1c-1.3-0.3-2.7,0.4-3.1,1.8l-2.4,9l-15.9,2.3c-1.4,0.2-2.3,1.5-2.1,2.8 c0.2,1.2,1.3,2.1,2.5,2.1c0.1,0,0.2,0,0.4,0l17.5-2.6C52.6,50.4,53.4,49.6,53.7,48.7z"/><path d="M28.8,55v2.5c0,0.8,0.7,1.5,1.5,1.5s1.5-0.7,1.5-1.5V55c0-0.3,0.1-0.6,0.2-0.9c-0.9-0.5-1.6-1.3-1.9-2.3 C29.2,52.7,28.8,53.8,28.8,55z"/><path d="M37.5,82.1c0.8,0,1.5-0.7,1.5-1.5V55c0-0.4-0.1-0.7-0.1-1.1L36,54.3c0.1,0.2,0.1,0.4,0.1,0.7v25.6 C36.1,81.5,36.7,82.1,37.5,82.1z"/></g></svg>