<svg xmlns="http://www.w3.org/2000/svg" xmlns:xlink="http://www.w3.org/1999/xlink" version="1.1" x="0px" y="0px" viewBox="0 0 100 125" style="enable-background:new 0 0 100 100;" xml:space="preserve"><style type="text/css">
	.st0{fill:#F6F7F7;}
	.st1{fill:#DB3A31;}
	.st2{stroke:#000000;stroke-width:2;stroke-linecap:round;stroke-linejoin:round;stroke-miterlimit:10;}
	.st3{fill:#FFFFFF;}
	.st4{fill:none;stroke:#EDC0C0;stroke-miterlimit:10;}
	.st5{fill:#EDC0C0;}
	.st6{fill:none;stroke:#000000;stroke-width:4;stroke-linecap:round;stroke-linejoin:round;stroke-miterlimit:10;}
	.st7{fill:#060808;}
	.st8{fill:none;}
	.st9{fill:#070A07;}
	.st10{fill:none;stroke:#000000;stroke-width:5.1;stroke-linecap:round;stroke-linejoin:round;stroke-miterlimit:10;}
	.st11{fill:none;stroke:#020202;stroke-width:4;stroke-miterlimit:10;}
	.st12{fill:none;stroke:#000000;stroke-width:3.9028;stroke-linecap:round;stroke-linejoin:round;stroke-miterlimit:10;}
	.st13{fill:none;stroke:#000000;stroke-width:2.9365;stroke-linecap:round;stroke-linejoin:round;stroke-miterlimit:10;}
	.st14{fill:none;stroke:#000000;stroke-width:0.5873;stroke-linecap:round;stroke-linejoin:round;stroke-miterlimit:10;}
	.st15{fill:none;stroke:#000000;stroke-width:5.8698;stroke-miterlimit:10;}
	.st16{fill:none;stroke:#000000;stroke-width:4.6136;stroke-miterlimit:10;}
	.st17{fill:none;stroke:#000000;stroke-width:2.9349;stroke-miterlimit:10;}
	.st18{fill:none;stroke:#000000;stroke-width:2.3068;stroke-miterlimit:10;}
	.st19{fill:none;stroke:#FFFFFF;stroke-width:0.9556;stroke-miterlimit:10;}
	.st20{fill:none;stroke:#000000;stroke-width:3.2643;stroke-miterlimit:10;}
	.st21{fill:none;stroke:#000000;stroke-width:3;stroke-miterlimit:10;}
	.st22{fill:none;stroke:#000000;stroke-width:2;stroke-linecap:round;stroke-linejoin:round;stroke-miterlimit:10;}
	.st23{fill:#231F20;}
	.st24{fill:none;stroke:#231F20;stroke-width:2;stroke-linecap:round;stroke-linejoin:round;stroke-miterlimit:10;}
	.st25{fill:#E9F0FF;}
	.st26{fill:#FFFFFF;stroke:#000000;stroke-width:2.5048;stroke-linecap:round;stroke-linejoin:round;stroke-miterlimit:10;}
	.st27{stroke:#FFFFFF;stroke-width:2.3956;stroke-miterlimit:10;}
	.st28{fill:none;stroke:#000000;stroke-width:3;stroke-linecap:round;stroke-linejoin:round;stroke-miterlimit:10;}
	.st29{fill:none;stroke:#000000;stroke-width:3.8305;stroke-linecap:round;stroke-linejoin:round;stroke-miterlimit:10;}
	.st30{fill:none;stroke:#000000;stroke-width:0.813;stroke-linecap:round;stroke-linejoin:round;stroke-miterlimit:10;}
	.st31{stroke:#000000;stroke-width:0.813;stroke-linecap:round;stroke-linejoin:round;stroke-miterlimit:10;}
	.st32{fill:none;stroke:#070A07;stroke-width:5.4115;stroke-miterlimit:10;}
	.st33{fill:none;stroke:#070A07;stroke-width:4;stroke-linecap:round;stroke-linejoin:round;stroke-miterlimit:10;}
	.st34{fill:none;stroke:#070A07;stroke-width:3;stroke-linecap:round;stroke-linejoin:round;stroke-miterlimit:10;}
	.st35{fill:#070A07;stroke:#FFFFFF;stroke-width:1.614;stroke-miterlimit:10;}
	.st36{fill:none;stroke:#FFFFFF;stroke-width:0.7622;stroke-miterlimit:10;}
	.st37{fill:none;stroke:#FFFFFF;stroke-width:1.6015;stroke-miterlimit:10;}
	.st38{fill:none;stroke:#000000;stroke-linecap:round;stroke-linejoin:round;stroke-miterlimit:10;}
	.st39{fill:none;stroke:#000000;stroke-width:2.5048;stroke-linecap:round;stroke-linejoin:round;stroke-miterlimit:10;}
	.st40{fill:none;stroke:#000000;stroke-width:2.0699;stroke-linecap:round;stroke-linejoin:round;stroke-miterlimit:10;}
	.st41{fill:#FFFFFF;stroke:#000000;stroke-width:1.6404;stroke-linecap:round;stroke-linejoin:round;stroke-miterlimit:10;}
	.st42{fill:#FFFFFF;stroke:#000000;stroke-width:2.5048;stroke-miterlimit:10;}
	.st43{clip-path:url(#SVGID_2_);}
	.st44{fill:#FFFFFF;stroke:#000000;stroke-linecap:round;stroke-linejoin:round;stroke-miterlimit:10;}
	.st45{clip-path:url(#SVGID_4_);}
	.st46{clip-path:url(#SVGID_6_);}
	.st47{fill:none;stroke:#000000;stroke-width:1.6154;stroke-linecap:round;stroke-linejoin:round;stroke-miterlimit:10;}
	.st48{fill:none;stroke:#000000;stroke-width:0.6567;stroke-linecap:round;stroke-linejoin:round;stroke-miterlimit:10;}
	.st49{stroke:#000000;stroke-width:0.6567;stroke-linecap:round;stroke-linejoin:round;stroke-miterlimit:10;}
	.st50{fill:none;stroke:#000000;stroke-width:1.288;stroke-linecap:round;stroke-linejoin:round;stroke-miterlimit:10;}
	.st51{fill:none;stroke:#000000;stroke-width:0.6704;stroke-linecap:round;stroke-linejoin:round;stroke-miterlimit:10;}
	.st52{fill:none;stroke:#000000;stroke-width:3.6712;stroke-linecap:round;stroke-linejoin:round;stroke-miterlimit:10;}
</style><g><rect x="52.8" y="72.2" class="st8" width="5.1" height="7.2"/><path d="M32.8,28.7c0,4.7,3.8,8.5,8.5,8.5c0.6,0,1.1-0.1,1.6-0.2c-0.3,1-0.5,2-0.6,3h0v5.3l5.8-0.9l2.1-8.1   c0.6-2.1,2.7-3.4,4.9-2.9c1,0.3,1.9,0.9,2.4,1.9c0.5,0.9,0.7,2,0.4,3L55.1,49c-0.4,1.6-1.7,2.7-3.3,2.9l-9.6,1.4v18.8h5.1v7.2h-3.6   v2.5h3.6h5.4h5.1h5.4v-2.5v-7.2h3V40h0c-0.3-6.3-5.5-11.3-11.9-11.3c-1.6,0-3.1,0.3-4.5,0.9c0-0.3,0.1-0.6,0.1-0.9   c0-1.4-0.4-2.8-1-3.9c-1.8-0.1-3.1-1.6-3.2-3.3c-1.3-0.8-2.8-1.2-4.4-1.2C36.6,20.2,32.8,24,32.8,28.7z M57.9,79.4h-5.1v-7.2h5.1   V79.4z"/><path class="st7" d="M48.8,24.7c0.1,0,0.1,0,0.2,0c1.9,0,3.4-1.5,3.4-3.4S50.9,18,49,18s-3.4,1.5-3.4,3.4c0,0,0,0,0,0   C45.6,23.2,47,24.6,48.8,24.7z"/><path d="M53.7,48.7L56.5,38c0.3-1.3-0.4-2.7-1.8-3.1c-1.3-0.3-2.7,0.4-3.1,1.8l-2.4,9l-15.9,2.3c-1.4,0.2-2.3,1.5-2.1,2.8   c0.2,1.2,1.3,2.1,2.5,2.1c0.1,0,0.2,0,0.4,0l17.5-2.6C52.6,50.4,53.4,49.6,53.7,48.7z"/><path d="M28.8,55v2.5c0,0.8,0.7,1.5,1.5,1.5s1.5-0.7,1.5-1.5V55c0-0.3,0.1-0.6,0.2-0.9c-0.9-0.5-1.6-1.3-1.9-2.3   C29.2,52.7,28.8,53.8,28.8,55z"/><path d="M37.5,82.1c0.8,0,1.5-0.7,1.5-1.5V55c0-0.4-0.1-0.7-0.1-1.1L36,54.3c0.1,0.2,0.1,0.4,0.1,0.7v25.6   C36.1,81.5,36.7,82.1,37.5,82.1z"/></g></svg>