<svg xmlns="http://www.w3.org/2000/svg" xmlns:xlink="http://www.w3.org/1999/xlink" version="1.1" x="0px" y="0px" viewBox="0 0 100 125" enable-background="new 0 0 100 100" xml:space="preserve"><path d="M45.885,30.002v-9.394c0-5.179-4.213-9.393-9.393-9.393s-9.394,4.214-9.394,9.393v9.394H45.885z M30.19,21.336  c2.354-0.229,4.746-1.634,6.373-2.804c1.47,1.946,3.462,3.756,5.819,4.428c-0.937,2.337-3.221,3.994-5.889,3.994  C33.239,26.955,30.553,24.494,30.19,21.336z M42.8,19.922c-0.167-0.062-0.329-0.142-0.491-0.221l-3.984-3.931  c-0.32-0.499-0.597-0.983-0.819-1.419C40.302,14.802,42.493,17.081,42.8,19.922z M34.312,14.655c0.163,0.4,0.373,0.84,0.612,1.297  c-1.394,1.014-2.955,1.875-4.289,2.213C31.315,16.541,32.654,15.265,34.312,14.655z"/><path d="M66.529,30.609c-6.55,0-11.879,5.33-11.879,11.879v17.009h3.037v28.87h7.883l0.001-22.679h1.915l-0.002,22.679h7.89v-28.87  h3.033V42.488C78.408,35.938,73.079,30.609,66.529,30.609z M75.36,59.497h-1.369h-1.523H60.588h-1.523h-1.369V42.488  c0-4.87,3.962-8.833,8.832-8.833c4.87,0,8.831,3.963,8.831,8.833V59.497z"/><path d="M66.529,30.001c5.18,0,9.393-4.214,9.393-9.394c0-5.178-4.213-9.392-9.393-9.392c-5.18,0-9.394,4.214-9.394,9.392  C57.135,25.787,61.349,30.001,66.529,30.001z M66.529,26.954c-3.5,0-6.347-2.848-6.347-6.347c0-0.294,0.027-0.582,0.066-0.866  l9.467-3.241c0.992,0.79,2.045,1.64,2.904,2.336c0.164,0.562,0.256,1.155,0.256,1.77C72.875,24.107,70.029,26.954,66.529,26.954z"/><rect x="87.084" y="73.174" width="3.046" height="15.847"/><g><rect x="93.692" y="73.174" width="3.046" height="15.847"/><path d="M91.911,54.09c-4.343,0-7.875,3.533-7.875,7.876v11.209h3.046V61.965c0-2.663,2.166-4.829,4.829-4.829   s4.829,2.167,4.829,4.829v11.209h3.046V61.965C99.786,57.623,96.253,54.09,91.911,54.09z"/></g><path d="M91.912,53.755c3.75,0,6.801-3.051,6.801-6.801s-3.05-6.801-6.801-6.801c-3.751,0-6.802,3.051-6.802,6.801  S88.161,53.755,91.912,53.755z M91.912,50.709c-2.071,0-3.756-1.684-3.756-3.755c0-0.668,0.19-1.287,0.497-1.831l1.592-1.226  c1.425,1.229,3.591,2.26,5.36,2.444c0.033,0.2,0.062,0.403,0.062,0.612C95.667,49.024,93.983,50.709,91.912,50.709z"/><path d="M44.797,51.821H46.2h1.523V41.394c0-6.129-4.986-11.117-11.116-11.117c-6.13,0-11.117,4.988-11.117,11.117v10.427h1.523  h1.43L24.442,72.88h7.665v15.425h3.046V72.88H38.2v15.425h3.046V72.88h7.524L44.797,51.821z M30.984,54.772h11.271l2.84,15.061  H28.121L30.984,54.772z"/><path d="M5.061,51.609c0-0.254-0.114-1.671-1.718-1.718c-1.761-0.054-2.702,2.684-3.155,3.415  C1.454,54.036,5.061,54.118,5.061,51.609z"/><path d="M17.337,66.964v-6.255c0-3.65-2.968-6.618-6.618-6.618s-6.618,2.969-6.618,6.618l0.003,6.181L1.135,78.407h4.756v10.615  h3.047V78.407H12.5v10.615h3.046V78.407h4.756L17.337,66.964z M5.072,75.361l2.013-7.767l0.063-6.886  c0-1.97,1.602-3.572,3.571-3.572s3.571,1.602,3.571,3.572l0.003,6.362l2.073,8.291H5.072z"/><path d="M10.72,53.755c3.75,0,6.801-3.051,6.801-6.801s-3.051-6.801-6.801-6.801c-3.75,0-6.802,3.051-6.802,6.801  S6.969,53.755,10.72,53.755z M10.72,50.709c-2.07,0-3.756-1.684-3.756-3.755c0-0.046,0.012-0.088,0.014-0.134  c0.966-0.374,2.436-1.096,3.57-2.317c0.945,0.872,2.308,1.65,3.856,1.748c0.044,0.228,0.071,0.463,0.071,0.703  C14.475,49.024,12.79,50.709,10.72,50.709z"/></svg>