<svg xmlns="http://www.w3.org/2000/svg" xmlns:xlink="http://www.w3.org/1999/xlink" x="0" y="0" enable-background="new 0 0 48 48" version="1.1" viewBox="0 0 48 60" xml:space="preserve"><g><path fill="#000" d="M8.6,17.9H2.3c-1,0-1.8,0.8-1.8,1.8s0.8,1.8,1.8,1.8h6.3c1,0,1.8-0.8,1.8-1.8S9.6,17.9,8.6,17.9z"/><path fill="#000" d="M47.5,35.6V19.1H39c-0.5,0-0.9-0.3-1-0.7L33.2,5.7c-0.6-1.5-2.3-2.3-3.8-1.7L15.9,8.8 c-1.1,0.4-1.6,1.5-1.3,2.6c0.3,1.1,1.5,1.7,2.6,1.4l9.2-2.8c0.3-0.1,0.7,0,1,0.2c0.3,0.2,0.4,0.5,0.4,0.9v24.6H47.5z M43,27.6 c1.8,0,3.3,1.5,3.3,3.3c0,1.8-1.5,3.3-3.3,3.3c-1.8,0-3.3-1.5-3.3-3.3C39.7,29.1,41.1,27.6,43,27.6z"/><path fill="#000" d="M11,26.4c0-1-0.8-1.8-1.8-1.8H2.3c-1,0-1.8,0.8-1.8,1.8c0,1,0.8,1.8,1.8,1.8h6.9C10.2,28.2,11,27.4,11,26.4 z"/><circle cx="43" cy="30.9" r="1.7" fill="#000"/><path fill="#000" d="M11,22.9c0.8,0.4,1.5,1.1,1.8,1.9c0.2,0,0.5-0.1,0.6-0.2c0.2-0.1,0.4-0.4,0.6-0.8c0.4-0.9,0.8-1.5,1.3-1.9 c0.4-0.4,1.1-0.6,1.8-0.6c0.8,0,1.4,0.2,1.8,0.6c0.5,0.4,0.7,1,0.8,1.7h1.3v1h-1.3c-0.1,0.7-0.4,1.3-0.9,1.8 c-0.5,0.5-1.3,0.7-2.2,0.7v-1.9c0.6,0,1-0.1,1.3-0.3c0.3-0.2,0.4-0.5,0.4-0.8c0-0.3-0.1-0.5-0.3-0.6s-0.5-0.2-0.9-0.2 c-0.4,0-0.7,0.1-0.9,0.2c-0.2,0.1-0.4,0.4-0.6,0.8c-0.4,0.9-0.8,1.5-1.2,1.9c-0.3,0.3-0.8,0.5-1.3,0.6c-0.1,1.1-0.6,2-1.3,2.7 c1,0.4,2.2,0.7,3.3,0.7c4,0,7.2-2.7,7.2-5.9c0-3.3-3.3-5.9-7.2-5.9c-1,0-1.9,0.2-2.8,0.5c0.1,0.3,0.2,0.7,0.2,1.1 C12.6,21,12,22.1,11,22.9z"/><path fill="#000" d="M6.8,11.2H2.3c-1,0-1.8,0.8-1.8,1.8c0,1,0.8,1.8,1.8,1.8h4.5c1,0,1.8-0.8,1.8-1.8C8.6,12,7.8,11.2,6.8,11.2 z"/><path fill="#000" d="M25.6,36.7V12.6l-7.8,2.4c-0.4,0.1-0.8,0.2-1.2,0.2c-1.9,0-3.5-1.2-4.1-3c-0.7-2.2,0.5-4.6,2.6-5.3L22.7,4 H4.8v5h2c2.2,0,4,1.8,4,4c0,1.1-0.5,2.1-1.2,2.8c0.6,0.2,1.2,0.5,1.7,0.9c1.2-0.5,2.6-0.7,3.9-0.7c5.2,0,9.4,3.6,9.4,8.1 s-4.2,8.1-9.4,8.1c-1.8,0-3.6-0.5-5.1-1.3c0.4,0.6,0.6,1.4,0.6,2.2c0,2.2-1.8,4-4,4h-2v7.1h20.9V36.7z"/><path fill="#000" d="M2.3,34.9h4.5c1,0,1.8-0.8,1.8-1.8s-0.8-1.8-1.8-1.8H2.3c-1,0-1.8,0.8-1.8,1.8S1.3,34.9,2.3,34.9z"/></g></svg>