<svg xmlns="http://www.w3.org/2000/svg" xmlns:xlink="http://www.w3.org/1999/xlink" version="1.1" x="0px" y="0px" viewBox="0 0 100 100" enable-background="new 0 0 100 100" xml:space="preserve"><path d="M65.512,47.084c-2.329,0-4.442,0.71-5.985,1.228c-0.068,0.023-0.131,0.044-0.197,0.068c-0.286-0.93-0.653-1.98-1.132-3.16  c9.998,0.264,8.907-6.079,8.907-6.079c-6.382-0.754-8.794,2.198-9.693,4.23c-0.137-0.308-0.279-0.616-0.431-0.939  c-0.36-0.767-1.273-1.095-2.038-0.737c-0.767,0.361-1.095,1.274-0.734,2.037c0.784,1.67,1.363,3.104,1.79,4.324  c-1.117-0.37-2.488-0.807-4.104-0.807c-0.7,0-1.394,0.098-2.091,0.259v-5.683c0-3.364-2.416-7.639-4.358-11.079  c-0.621-1.095-1.355-2.394-1.711-3.2c0.245-0.19,0.452-0.437,0.609-0.731c0.293-0.55,0.354-1.131,0.354-1.522  c0-1.551-0.919-2.674-2.189-2.674h-7.78c-0.762,0-1.448,0.428-1.833,1.15c-0.293,0.549-0.353,1.131-0.353,1.523  c0,0.98,0.369,1.794,0.961,2.255c-0.356,0.808-1.089,2.104-1.709,3.198c-1.942,3.44-4.358,7.715-4.358,11.079V65.41  c0,3.107,2.954,5.835,6.321,5.835h9.725c0.423,0,0.837-0.053,1.243-0.138c0.917,2.863,1.647,5.343,1.661,5.394l0.06,0.2l0.118,0.211  c1.45,2.142,3.195,3.224,5.338,3.224h0.001c1.152,0,2.292-0.332,3.394-0.616c1.082-0.281,2.2-0.59,3.304-0.59  c0.589,0,1.131,0.072,1.666,0.234c1.654,0.512,3.065,0.755,4.315,0.755c2.721,0,4.644-1.198,5.876-3.661  c0.608-1.219,1.02-2.857,1.452-4.586c0.54-2.137,1.093-4.346,2.003-5.722l0.047-0.071c3.141-4.736,3.119-9.49-0.061-14.129  C71.78,48.655,68.957,47.084,65.512,47.084z M43.482,68.328h-9.725c-1.573,0-3.402-1.275-3.402-2.918V41.826  c0-2.595,2.3-6.667,3.98-9.641c1.859-3.292,2.793-4.944,2.041-6.234c-0.091-0.158-0.202-0.296-0.33-0.414h5.15  c-0.129,0.118-0.238,0.256-0.333,0.414c-0.751,1.29,0.182,2.941,2.042,6.234c1.68,2.974,3.982,7.046,3.982,9.641v6.799  c-0.008,0.003-0.014,0.005-0.021,0.009c-6.349,3.44-6.99,10.685-5.016,14.596c0.532,1.049,1.244,2.985,1.946,5.057  C43.691,68.298,43.584,68.328,43.482,68.328z M71.726,64.398l-0.047,0.072c-1.162,1.757-1.773,4.193-2.364,6.546  c-0.4,1.585-0.775,3.084-1.254,4.04c-0.773,1.546-1.779,2.176-3.479,2.176c-0.964,0-2.15-0.211-3.525-0.637  c-0.79-0.245-1.594-0.361-2.455-0.361c-1.444,0-2.787,0.354-3.972,0.656c-0.983,0.256-1.915,0.506-2.726,0.506h-0.001  c-0.845,0-1.857-0.233-3.005-1.852c-0.454-1.529-3.143-10.522-4.658-13.519c-1.234-2.44-1.355-8.185,3.902-11.035  c1.314-0.71,2.541-1.059,3.753-1.059c1.247,0,2.337,0.361,3.395,0.711c0.543,0.183,1.07,0.355,1.602,0.478  c0.36,1.623,0.308,2.4,0.305,2.459c-0.022,0.184-0.009,0.363,0.034,0.535c-0.892-0.215-1.497-0.529-1.523-0.539  c-0.556-0.299-1.25-0.089-1.55,0.469c-0.299,0.557-0.09,1.254,0.468,1.554c0.115,0.063,1.951,1.024,4.258,1.024  c1.183,0,2.487-0.252,3.75-1.008c0.543-0.326,0.72-1.031,0.395-1.576c-0.326-0.543-1.032-0.719-1.575-0.393  c-0.412,0.248-0.838,0.406-1.264,0.514c0.016-0.062,0.036-0.118,0.042-0.182c0.027-0.182,0.125-1.125-0.238-2.996  c0.125-0.042,0.255-0.084,0.39-0.13c1.367-0.459,3.238-1.088,5.131-1.088c2.543,0,4.564,1.146,6.178,3.501  C75.46,58.766,72.748,62.859,71.726,64.398z M82.878,5.693l-0.715,0.471l-4.015,2.633L73.35,5.716l-4.883,3.087l-4.902-3.084  l-4.912,3.086l-4.931-3.086l-4.93,3.084l-4.934-3.084l-4.929,3.084l-4.934-3.083l-4.93,3.083L24.15,5.729l-5.219,3.094L12.477,5v90  h75.046V9.044L82.878,5.693z M85.037,92.514H14.963V9.36l3.968,2.352l5.184-3.071l4.95,3.092l4.93-3.081l4.934,3.084l4.931-3.084  l4.932,3.081l4.93-3.081l4.931,3.087l4.912-3.087l4.907,3.089l4.871-3.078l4.818,3.097l4.653-3.049l2.224,1.602V92.514z"></path></svg>