<svg xmlns="http://www.w3.org/2000/svg" xmlns:xlink="http://www.w3.org/1999/xlink" version="1.1" x="0px" y="0px" viewBox="0 0 100 125" style="enable-background:new 0 0 100 100;" xml:space="preserve"><style type="text/css">
	.st0{display:none;}
	.st1{display:inline;stroke:#000000;stroke-miterlimit:10;}
	.st2{fill:none;}
	.st3{fill:#FFFFFF;}
	.st4{clip-path:url(#SVGID_2_);}
</style><g class="st0"><rect x="-582" y="-219.6" class="st1" width="4427.1" height="779.8"/></g><g><g><path class="st2" d="M77.7,77.6c0-5.1-4.3-9.2-9.6-9.3c0,0-0.1,0-0.1,0c-1.8,0-5,0.5-8.6,1.3c4.2,2.5,14.2,9.3,17.4,11.9    C77.3,80.3,77.7,79,77.7,77.6z"/><path class="st2" d="M33.1,39.7c0.9,0.2,1.9,0.2,2.8-0.2c-1.4-0.5-2.7-1.4-3.6-2.9c-0.9-1.5-1.1-3.2-0.8-4.8    c-0.8,0.6-1.3,1.4-1.6,2.4c-0.3,1.1-0.1,2.3,0.5,3.4C31,38.7,32,39.4,33.1,39.7z"/><path d="M97.2,85H82.6c-0.9,0-1.5,0.7-1.5,1.5V93H5.3c-0.9,0-1.5,0.7-1.5,1.5S4.4,96,5.3,96h77.4c0.9,0,1.5-0.7,1.5-1.5v-6.4h13    c0.9,0,1.5-0.7,1.5-1.5C98.7,85.7,98,85,97.2,85z"/><path d="M32.4,42.7c0.6,0.2,1.3,0.2,1.9,0.2c1.3,0,2.6-0.4,3.8-1c1.1-0.6,2-1.5,2.6-2.6c0.3-0.5,0.3-1.1,0-1.6    c-0.3-0.5-0.8-0.8-1.4-0.8c-1.5,0.1-3.4-0.4-4.3-1.9c-0.9-1.5-0.4-3.6,0.3-4.9c0.3-0.5,0.3-1.1,0-1.6c-0.3-0.5-0.8-0.8-1.4-0.8    c-1.2,0-2.5,0.4-3.5,1c-1.7,1-3,2.7-3.5,4.6c-0.5,1.9-0.2,4,0.8,5.7C28.8,40.9,30.4,42.2,32.4,42.7z M30,34.3    c0.2-1,0.8-1.8,1.6-2.4c-0.2,1.6-0.1,3.3,0.8,4.8c0.9,1.4,2.2,2.4,3.6,2.9c-0.9,0.4-1.9,0.4-2.8,0.2c-1.1-0.3-2.1-1-2.7-2    C29.8,36.6,29.7,35.4,30,34.3z"/><path d="M88.8,82.6c3.3,0,6.1-2.7,6.1-6.1s-2.7-6.1-6.1-6.1s-6.1,2.7-6.1,6.1S85.5,82.6,88.8,82.6z"/><path d="M14.8,90c0.5,0,53.2,0,53.2,0c7,0,12.6-5.5,12.6-12.3c0-6.7-5.7-12.2-12.6-12.3c0,0-0.1,0-0.1,0c-6.4,0-27.5,5.8-28.3,6    c-1,0.3-2.2,0.6-3.6,0.9C17.2,77.1,6.3,80.8,6.3,85.8c0,1.1,0.3,1.9,1,2.6C8.8,89.8,11.2,90,14.8,90z M68,68.4    C68,68.4,68,68.4,68,68.4c5.4,0.1,9.7,4.2,9.7,9.3c0,1.4-0.3,2.7-0.9,3.9c-3.2-2.5-13.2-9.3-17.4-11.9C63,68.9,66.2,68.4,68,68.4z    "/></g></g></svg>