<svg xmlns="http://www.w3.org/2000/svg" x="0" y="0" data-name="Layer 1" viewBox="0 0 30 37.5"><path d="M28.97,8.768a.936.936,0,0,0-.049-.134.919.919,0,0,0-.036-.1l-.011-.015L28.868,8.5l-4-7c-.014-.025-.036-.045-.052-.068a.774.774,0,0,0-.055-.073,1.007,1.007,0,0,0-.263-.229l0,0-.01,0a1,1,0,0,0-.321-.106c-.031-.005-.06-.01-.091-.012S24.025,1,24,1H6c-.025,0-.049.008-.074.01a.925.925,0,0,0-.092.012,1.014,1.014,0,0,0-.32.106l-.01,0,0,0a1.007,1.007,0,0,0-.263.229.774.774,0,0,0-.055.073c-.016.023-.038.043-.052.068l-4,7-.006.015-.011.015a.919.919,0,0,0-.036.1.936.936,0,0,0-.049.134,1.035,1.035,0,0,0-.016.123A.929.929,0,0,0,1,9.03a.984.984,0,0,0,.015.12,1.119,1.119,0,0,0,.028.14.862.862,0,0,0,.045.109,1.019,1.019,0,0,0,.043.1c.007.012.017.02.025.032a.28.28,0,0,0,.015.03L14.169,28.555v0l.005.007a.984.984,0,0,0,.195.207.819.819,0,0,0,.068.047.957.957,0,0,0,.189.1c.027.011.053.022.081.031a.895.895,0,0,0,.584,0c.028-.009.054-.02.081-.031a.957.957,0,0,0,.189-.1.819.819,0,0,0,.068-.047.984.984,0,0,0,.195-.207l.005-.007v0L28.825,9.564a.28.28,0,0,0,.015-.03c.008-.012.018-.02.025-.032a1.019,1.019,0,0,0,.043-.1.862.862,0,0,0,.045-.109,1.119,1.119,0,0,0,.028-.14A.984.984,0,0,0,29,9.03a.929.929,0,0,0-.01-.139A1.035,1.035,0,0,0,28.97,8.768ZM11.3,10H18.7L15,24.071ZM15,3.721,18.057,8H11.943ZM10.094,7.148,7.723,3h5.334ZM16.943,3h5.334L19.906,7.148ZM24,4.015,26.276,8H21.723Zm-18,0L8.277,8H3.724ZM9.229,10l3.334,12.667L3.9,10Zm8.208,12.667L20.771,10H26.1Z"/></svg>