<svg xmlns="http://www.w3.org/2000/svg" xmlns:xlink="http://www.w3.org/1999/xlink" version="1.1" x="0px" y="0px" viewBox="0 0 100 125" enable-background="new 0 0 100 100" xml:space="preserve"><path d="M50.748,29.141c0.835-1.35,2.571-6.399,5.819-6.298c2.96,0.09,3.169,2.702,3.169,3.168  C59.736,30.641,53.082,30.491,50.748,29.141z M79.077,75.442V95.02h-5.619V75.442h-6.571V95.02h-5.619V75.442h-8.773l5.477-21.246  l-0.005-11.401c0-6.731,5.475-12.208,12.206-12.208c6.731,0,12.206,5.477,12.206,12.208v11.539l5.471,21.108H79.077z M59.757,69.823  h20.831L76.765,54.53l-0.005-11.735c0-3.633-2.954-6.589-6.587-6.589c-3.633,0-6.587,2.956-6.587,6.589L63.47,55.496L59.757,69.823z   M57.628,17.425c0-6.916,5.628-12.543,12.547-12.543s12.545,5.627,12.545,12.543c0,6.919-5.627,12.547-12.545,12.547  S57.628,24.344,57.628,17.425z M77.099,17.425c0-0.444-0.051-0.875-0.131-1.296c-2.854-0.18-5.368-1.615-7.111-3.224  c-2.092,2.252-4.802,3.582-6.585,4.272c-0.003,0.084-0.025,0.163-0.025,0.248c0,3.82,3.108,6.928,6.927,6.928  C73.993,24.353,77.099,21.245,77.099,17.425z M19.621,95.02h5.619V65.789h-5.619V95.02z M31.811,95.02h5.619V65.789h-5.619V95.02z   M28.526,30.589C20.517,30.589,14,37.104,14,45.113v20.665h2.81v0h23.432v0h2.81V45.113C43.051,37.104,36.535,30.589,28.526,30.589z   M15.981,17.425c0-6.916,5.628-12.544,12.547-12.544c6.917,0,12.545,5.628,12.545,12.544c0,6.918-5.628,12.546-12.545,12.546  C21.61,29.971,15.981,24.343,15.981,17.425z M35.453,17.425c0-0.256-0.048-0.499-0.076-0.747c-3.297-0.281-7.404-2.217-10.086-4.53  l-2.995,2.307c-0.433,0.904-0.697,1.903-0.697,2.971c0,3.819,3.108,6.926,6.927,6.926C32.346,24.351,35.453,21.244,35.453,17.425z"/></svg>