<svg xmlns="http://www.w3.org/2000/svg" xmlns:xlink="http://www.w3.org/1999/xlink" version="1.1" x="0px" y="0px" viewBox="0 0 128 160" style="enable-background:new 0 0 128 128;" xml:space="preserve"><g><g><g><path d="M58.8,102.5c-26.8,0-48.6-21.8-48.6-48.6C10.2,27.2,32,5.4,58.8,5.4s48.6,21.8,48.6,48.6     C107.3,80.7,85.6,102.5,58.8,102.5z M58.8,9.4c-24.6,0-44.6,20-44.6,44.6c0,24.6,20,44.6,44.6,44.6c24.6,0,44.6-20,44.6-44.6     C103.3,29.4,83.3,9.4,58.8,9.4z"/></g><rect x="98.2" y="85.4" transform="matrix(0.7148 -0.6993 0.6993 0.7148 -44.6578 99.9487)" width="4" height="38.7"/><path d="M111.1,122.6c-0.9,0-1.7-0.3-2.4-1v0l-11.1-11.4c-1.3-1.3-1.2-3.4,0.1-4.7l3.5-3.4c1.3-1.3,3.4-1.2,4.7,0.1l11.1,11.4    c1.3,1.3,1.2,3.4-0.1,4.7l-3.5,3.4C112.8,122.3,112,122.6,111.1,122.6z M111.6,118.8L111.6,118.8    C111.6,118.8,111.6,118.8,111.6,118.8z M101,107.9l10.2,10.4l2.4-2.4l-10.2-10.4L101,107.9z"/><g><path d="M58.8,93.7C36.8,93.7,19,75.9,19,53.9s17.9-39.8,39.8-39.8S98.6,32,98.6,53.9S80.7,93.7,58.8,93.7z M58.8,18.1     C39,18.1,23,34.2,23,53.9S39,89.7,58.8,89.7c19.7,0,35.8-16.1,35.8-35.8S78.5,18.1,58.8,18.1z"/></g></g><g><g><g><path d="M78.5,73.6H39.1c-3.8,0-6.8-2.9-6.8-6.5V44c0-3.6,3.1-6.5,6.8-6.5h39.6c3.8,0,6.8,2.9,6.8,6.5l0.1,22.7      c0,1.8-0.7,3.5-2,4.8C82.4,72.8,80.5,73.6,78.5,73.6z M39.1,41.5c-1.6,0-2.8,1.1-2.8,2.5v23.1c0,1.4,1.3,2.5,2.8,2.5h39.4      c0.9,0,1.8-0.4,2.4-1c0.5-0.5,0.8-1.2,0.8-1.9L81.6,44c0-1.4-1.3-2.5-2.8-2.5H39.1z"/><path d="M68.2,39.5c-1.1,0-2-0.9-2-2v-1.2c0-1-0.9-1.8-2-1.8H53.7c-1.1,0-2,0.8-2,1.8v1.2c0,1.1-0.9,2-2,2s-2-0.9-2-2v-1.2      c0-3.2,2.7-5.8,6-5.8h10.4c3.3,0,6,2.6,6,5.8v1.2C70.2,38.6,69.3,39.5,68.2,39.5z"/></g></g></g><polygon points="65.7,57.5 62.5,57.5 62.5,53.5 64.3,53.5 81.3,39.7 83.8,42.8  "/><polygon points="54.1,57.5 50.7,57.4 34,42.8 36.6,39.8 52.2,53.4 54.1,53.5  "/><path d="M59.3,63.9h-2.7c-1.8,0-3.3-1.5-3.3-3.3v-9.2c0-1.8,1.5-3.3,3.3-3.3h2.7c1.8,0,3.3,1.5,3.3,3.3v9.2   C62.6,62.4,61.1,63.9,59.3,63.9z M57.2,59.9h1.4V52h-1.4V59.9z"/></g></svg>